<?xml version="1.0" encoding="UTF-8"?>
<!DOCTYPE svg PUBLIC "-//W3C//DTD SVG 1.1//EN" "http://www.w3.org/Graphics/SVG/1.1/DTD/svg11.dtd">
<svg xmlns="http://www.w3.org/2000/svg"
xmlns:xlink="http://www.w3.org/1999/xlink" xmlns:ev="http://www.w3.org/2001/xml-events"
version="1.1" baseProfile="full"
width="800" height="400" >

    <!-- Define colors -->
    <style>
        .background { fill: #031b39 }
        .arrow { fill: #0c72b2 }
        .link {
            stroke: #0c72b2 ;
            stroke-width: 1px ;
            stroke-linecap: round ;
            marker-end: url(#Triangle);
        }
        .node {
            fill: #0c72b2 ;
        }
    </style>

    <!-- Define the arrow head -->
    <defs>
        <marker id="Triangle"
        viewBox="0 0 20 10" refX="20" refY="5"
        markerUnits="strokeWidth"
        markerWidth="15" markerHeight="10"
        orient="auto" class="arrow">
            <path d="M 0 0 L 20 5 L 0 10 L 5 5 z" />
        </marker>
    </defs>

    <!-- background color -->
    <rect width="100%" height="100%" x="0" y="0" class="background" />

    <!-- nodes -->
    <circle cx="20"  cy="170" r="5" class="node" />
    <circle cx="190" cy="240" r="5" class="node" />
    <circle cx="300" cy="90"  r="5" class="node" />
    <circle cx="380" cy="300" r="5" class="node" />
    <circle cx="590" cy="150" r="5" class="node" />
    <circle cx="680" cy="360" r="5" class="node" />
    <circle cx="720" cy="33"  r="5" class="node" />

    <!-- links -->
    <line x1="20" y1="170" x2="190" y2="240" class="link"/>
    <line x1="20" y1="170" x2="300" y2="90" class="link"/>
    <line x1="300" y1="90" x2="190" y2="240" class="link"/>
    <line x1="380" y1="300" x2="190" y2="240" class="link"/>
    <line x1="380" y1="300" x2="590" y2="150" class="link"/>
    <line x1="380" y1="300" x2="680" y2="360" class="link"/>
    <line x1="590" y1="150" x2="300" y2="90" class="link"/>
    <line x1="590" y1="150" x2="680" y2="360" class="link"/>
    <line x1="720" y1="33" x2="590" y2="150" class="link"/>

    <!-- inter links top bottom (add or substract 400 to/from y) -->
    <line x1="380" y1="300" x2="590" y2="550" class="link"/>
    <line x1="380" y1="-100" x2="590" y2="150" class="link"/>
    <line x1="300" y1="90" x2="190" y2="-160" class="link"/>
    <line x1="300" y1="490" x2="190" y2="240" class="link"/>
    <line x1="720" y1="33" x2="680" y2="-40" class="link"/>
    <line x1="720" y1="433" x2="680" y2="360" class="link"/>

    <!-- inter links left right (add or substract 800 to/from x) -->
    <line x1="590" y1="150" x2="820" y2="170" class="link"/>
    <line x1="-390" y1="150" x2="20" y2="170" class="link"/>
    <line x1="720" y1="33" x2="820" y2="170" class="link"/>
    <line x1="-80" y1="33" x2="20" y2="170" class="link"/>
    <line x1="190" y1="240" x2="-120" y2="360" class="link"/>
    <line x1="990" y1="240" x2="680" y2="360" class="link"/>

    <!-- inter links cross corner (add or substract 800 to/from x and 400 to/from y) -->
    <line x1="190" y1="240" x2="-80" y2="433" class="link"/>
    <line x1="990" y1="-160" x2="720" y2="33" class="link"/>
    <line x1="990" y1="240" x2="720" y2="433" class="link"/>

</svg>
